<svg width="32" height="32" viewBox="0 0 32 32" fill="none" xmlns="http://www.w3.org/2000/svg">
<path d="M19.6585 6.30225V2C19.6585 1.44772 19.2107 1 18.6585 1H6.63088C5.73062 1 5 1.7251 5 2.61852V28.5148C5 29.4082 5.73062 30.1333 6.63088 30.1333H25.9798C26.8801 30.1333 27.6107 29.4082 27.6107 28.5148V9.89189C27.6107 9.33961 27.163 8.89189 26.6107 8.89189H22.2679C20.8295 8.89189 19.6585 7.72978 19.6585 6.30225ZM23.3737 24.3066H9.23703C8.78691 24.3066 8.42159 23.9441 8.42159 23.4974C8.42159 23.0507 8.78691 22.6881 9.23703 22.6881H23.3737C23.8238 22.6881 24.1891 23.0507 24.1891 23.4974C24.1891 23.9441 23.8238 24.3066 23.3737 24.3066ZM23.3737 19.0206H9.23703C8.78691 19.0206 8.42159 18.658 8.42159 18.2113C8.42159 17.7646 8.78691 17.4021 9.23703 17.4021H23.3737C23.8238 17.4021 24.1891 17.7646 24.1891 18.2113C24.1891 18.658 23.8238 19.0206 23.3737 19.0206ZM24.1891 12.922C24.1891 13.3687 23.8238 13.7313 23.3737 13.7313H9.23703C8.78691 13.7313 8.42159 13.3687 8.42159 12.922C8.42159 12.4753 8.78691 12.1128 9.23703 12.1128H23.3737C23.8238 12.1128 24.1891 12.4753 24.1891 12.922Z" fill="#1796E3"/>
<path d="M23.1051 7.33333H26.7852C27.2318 7.33333 27.4544 6.79259 27.1373 6.47824L22.463 1.8446C22.1474 1.53173 21.611 1.75529 21.611 2.19969V5.85219C21.611 6.66979 22.2803 7.33333 23.1051 7.33333Z" fill="#1796E3"/>
</svg>
