<svg width="24" height="24" viewBox="0 0 24 24" fill="none" xmlns="http://www.w3.org/2000/svg">
<path d="M20.533 3.3335H3.46634C2.29301 3.3335 1.33301 4.3085 1.33301 5.50016V18.5002C1.33301 19.6918 2.29301 20.6668 3.46634 20.6668H20.533C21.7063 20.6668 22.6663 19.6918 22.6663 18.5002V5.50016C22.6663 4.3085 21.7063 3.3335 20.533 3.3335ZM20.1063 7.93766L13.1303 12.3685C12.437 12.8127 11.5623 12.8127 10.869 12.3685L3.89301 7.93766C3.78605 7.87668 3.69239 7.7943 3.61769 7.69549C3.54299 7.59668 3.48881 7.48351 3.45842 7.36281C3.42804 7.24212 3.42208 7.11643 3.44091 6.99333C3.45974 6.87023 3.50297 6.75229 3.56798 6.64666C3.63298 6.54102 3.71842 6.44987 3.81912 6.37874C3.91981 6.30761 4.03367 6.25797 4.1538 6.23282C4.27394 6.20767 4.39784 6.20754 4.51803 6.23244C4.63821 6.25734 4.75217 6.30674 4.85301 6.37766L11.9997 10.9168L19.1463 6.37766C19.2472 6.30674 19.3611 6.25734 19.4813 6.23244C19.6015 6.20754 19.7254 6.20767 19.8455 6.23282C19.9657 6.25797 20.0795 6.30761 20.1802 6.37874C20.2809 6.44987 20.3664 6.54102 20.4314 6.64666C20.4964 6.75229 20.5396 6.87023 20.5584 6.99333C20.5773 7.11643 20.5713 7.24212 20.5409 7.36281C20.5105 7.48351 20.4564 7.59668 20.3817 7.69549C20.307 7.7943 20.2133 7.87668 20.1063 7.93766Z" fill="white"/>
</svg>
