<svg width="24" height="24" viewBox="0 0 24 24" fill="none" xmlns="http://www.w3.org/2000/svg">
<path d="M15.461 14.0229C14.424 14.6319 13.258 14.9999 12 14.9999C10.742 14.9999 9.576 14.6319 8.539 14.0229C4.894 14.2619 2 17.2959 2 21V22.7299L2.695 22.9529C2.829 22.9949 6.038 24 12 24C17.962 24 21.171 22.9949 21.305 22.9529L22 22.7299V21C22 17.2959 19.106 14.2619 15.461 14.0229Z" fill="white"/>
<path d="M12 13C15.379 13 18 9.237 18 6C18 2.691 15.309 0 12 0C8.691 0 6 2.691 6 6C6 9.237 8.621 13 12 13Z" fill="white"/>
</svg>
